<svg id="Layer_1" data-name="Layer 1" xmlns="http://www.w3.org/2000/svg" viewBox="0 0 217.73 217.73"><defs><style>.cls-1,.cls-2,.cls-3{fill:none;stroke-linecap:round;stroke-linejoin:round;stroke-width:7px;}.cls-1{stroke:#a75425;}.cls-2{stroke:#9e8a71;}.cls-3{stroke:#a8c33b;}</style></defs><path class="cls-1" d="M189.77,169.75c27.38-64.82-100.7-50.77-101-14.32-.24,27.33,81.06,33.54,71.34-50.27-6.87-59.25-93.82-52-93.82-13.55,0,42.18,127-.14,97-50C137.11-2,13,33.5,31.92,130.74,52,234,171.76,212.37,189.77,169.75Z"/><path class="cls-2" d="M162.17,177.05c46-24.24,47.76-132-22.3-142.53C69.46,24,53.89,150.91,94.6,150.91s-5.14-128-33.3-94.16C13.89,113.69,57.94,232,162.17,177.05Z"/><g id="Layer_3" data-name="Layer 3"><path class="cls-3" d="M155,80c0-37.51-86.68-59.39-86.68,41.08,0,76.32,89,75,89.89,31.19C159.12,107,50.62,91.61,50.62,114.8,50.62,142.6,155,117.36,155,80Z"/></g></svg>