<?xml version="1.0" encoding="utf-8"?>
<!-- Generator: Adobe Illustrator 19.2.0, SVG Export Plug-In . SVG Version: 6.00 Build 0)  -->
<svg version="1.1" id="Layer_1" xmlns="http://www.w3.org/2000/svg" xmlns:xlink="http://www.w3.org/1999/xlink" x="0px" y="0px"
	 viewBox="0 0 508 150" enable-background="new 0 0 508 150" xml:space="preserve">
<g>
	<g>
		<path fill="#6E6F72" d="M93.426,110.293c0,1.324-1.073,2.396-2.396,2.396H63.462c-1.324,0-2.396-1.073-2.396-2.396V39.708
			c0-1.324,1.073-2.396,2.396-2.396H91.03c1.324,0,2.396,1.073,2.396,2.396V110.293z"/>
	</g>
	<path fill="#595A5C" d="M58.297,87.967c0-1.236-0.94-2.269-2.171-2.385c-11.074-1.049-19.79-10.411-19.79-21.776
		c0-11.367,8.715-20.732,19.79-21.78c1.23-0.117,2.171-1.149,2.171-2.385v-0.044c0-0.675-0.285-1.318-0.783-1.772
		c-0.499-0.455-1.167-0.682-1.838-0.618c-13.658,1.288-24.183,12.781-24.183,26.601c0,13.833,10.541,25.305,24.18,26.595
		c0.672,0.064,1.339-0.159,1.838-0.613s0.786-1.098,0.786-1.772V87.967z"/>
	<path fill="#595A5C" d="M98.8,37.169c-0.655-0.049-1.3,0.176-1.782,0.623c-0.482,0.446-0.757,1.073-0.757,1.73v0.088
		c0,1.251,0.963,2.293,2.21,2.39c11.323,0.881,20.152,10.383,20.152,21.806c0,11.413-8.823,20.921-20.151,21.802
		c-1.247,0.097-2.211,1.137-2.211,2.387v0.047c0,0.668,0.279,1.305,0.768,1.759s1.147,0.685,1.813,0.634
		c13.832-1.068,24.625-12.626,24.625-26.629C123.467,49.825,112.688,38.217,98.8,37.169z"/>
</g>
<g>
	<g>
		<path fill="#673090" d="M171.85,110.188c0,1.324-1.073,2.396-2.396,2.396h-27.565c-1.324,0-2.396-1.073-2.396-2.396V39.603
			c0-1.324,1.073-2.396,2.396-2.396h27.565c1.324,0,2.396,1.073,2.396,2.396V110.188z"/>
	</g>
	<path fill="#595A5C" d="M177.33,37.137c-0.675-0.07-1.348,0.15-1.852,0.604c-0.504,0.454-0.794,1.101-0.794,1.78v0.051
		c0,1.227,0.928,2.258,2.148,2.385c10.93,1.14,19.482,10.405,19.482,21.635c0,11.23-8.552,20.497-19.482,21.638
		c-1.221,0.127-2.148,1.157-2.148,2.385v0.049c0,0.679,0.288,1.326,0.793,1.781c0.505,0.454,1.178,0.673,1.853,0.603
		c13.388-1.386,23.828-12.7,23.828-26.455C201.159,49.834,190.718,38.522,177.33,37.137z"/>
</g>
<g>
	<g>
		<path fill="#EC2227" d="M341.179,110.307c0,1.324-1.073,2.396-2.396,2.396h-27.566c-1.324,0-2.396-1.073-2.396-2.396V39.72
			c0-1.324,1.073-2.396,2.396-2.396h27.566c1.324,0,2.396,1.073,2.396,2.396V110.307z"/>
	</g>
	<path fill="#595A5C" d="M378.752,109.225l-22.073-50.8c-0.458-1.054-0.103-2.285,0.845-2.933l20.233-13.837
		c1.105-0.754,1.389-2.261,0.634-3.366c-0.748-1.092-2.234-1.378-3.337-0.65c-0.011,0.007-0.023,0.015-0.033,0.022l-29.964,20.49
		c-0.653,0.447-1.044,1.187-1.044,1.978v0.06c0,0.889,0.492,1.705,1.278,2.12c0.786,0.415,1.737,0.36,2.471-0.141l1.642-1.123
		c0.59-0.404,1.329-0.523,2.016-0.325c0.687,0.198,1.25,0.692,1.534,1.348l21.329,49.092c0.007,0.017,0.015,0.035,0.023,0.051
		c0.41,0.887,1.29,1.418,2.216,1.418c0.322,0,0.651-0.064,0.966-0.203C378.724,111.889,379.289,110.457,378.752,109.225z"/>
</g>
<g>
	<g>
		<path fill="#08A650" d="M450.792,110.193c0,1.324-1.073,2.396-2.396,2.396H420.83c-1.324,0-2.396-1.073-2.396-2.396V39.609
			c0-1.324,1.073-2.396,2.396-2.396h27.565c1.324,0,2.396,1.073,2.396,2.396V110.193z"/>
	</g>
	<path fill="#595A5C" d="M415.599,39.638c0-1.324-1.073-2.396-2.396-2.396h-16.065c-1.339,0-2.421,1.083-2.421,2.421
		c0,1.337,1.082,2.422,2.421,2.422h16.065c1.324,0,2.396-1.073,2.396-2.396V39.638z"/>
	<path fill="#595A5C" d="M472.086,37.241h-16.063c-1.324,0-2.396,1.073-2.396,2.396v0.051c0,1.324,1.073,2.396,2.396,2.396h16.063
		c1.337,0,2.422-1.085,2.422-2.422C474.508,38.324,473.423,37.241,472.086,37.241z"/>
</g>
<g>
	<g>
		<path fill="#F26724" d="M241.76,111.397c-0.936,0.936-2.453,0.936-3.389,0l-19.494-19.492c-0.449-0.449-0.702-1.059-0.702-1.695
			c0-0.636,0.252-1.245,0.702-1.695l49.912-49.913c0.449-0.449,1.059-0.702,1.695-0.702c0.636,0,1.245,0.253,1.695,0.702
			l19.492,19.494c0.936,0.936,0.936,2.453,0,3.389L241.76,111.397z"/>
	</g>
	<path fill="#595A5C" d="M242.567,60.795c0.458-0.458,0.711-1.081,0.702-1.728c-0.009-0.647-0.28-1.263-0.75-1.708l-20.763-19.622
		c-0.001-0.001-0.001-0.001-0.002-0.002c-0.96-0.909-2.479-0.864-3.386,0.097c-0.909,0.96-0.866,2.478,0.095,3.387l20.764,19.623
		C240.169,61.733,241.65,61.712,242.567,60.795z"/>
</g>
</svg>
