<svg id="Layer_1" data-name="Layer 1" xmlns="http://www.w3.org/2000/svg" viewBox="0 0 217.73 217.73"><defs><style>.cls-1,.cls-2,.cls-3,.cls-4,.cls-5{fill:none;stroke-linecap:round;stroke-linejoin:round;stroke-width:7px;}.cls-1{stroke:#fee000;}.cls-2{stroke:#b7b7b7;}.cls-3{stroke:#37a886;}.cls-4{stroke:#ed1c24;}.cls-5{stroke:#8c8c8c;}</style></defs><g id="Layer_3" data-name="Layer 3"><path class="cls-1" d="M105.93,145.62c23.66-11.56,78.8-42.86,78.8-13.88S85.4,174.06,85.4,103.59s99.33-58.78,99.33-29.8-49.15-4.28-73.83-15.55C79.69,44,59.64,73.4,59.64,101.35,59.64,133.2,76.57,160,105.93,145.62Z"/></g><path class="cls-2" d="M162.83,151.55c0,48.2-128.84,57.3-128.72-40.28C34.22,9.4,162.8,16.48,162.81,66.39c0,45-76-.35-76,44.34C86.8,158.45,162.83,111.39,162.83,151.55Z"/><path class="cls-3" d="M150.78,178.29c35.33-.1,23.75-141.58-34.08-141.58-85.36,0-88.1,141.55-48.53,141.58,41.25,0,22.11-162.95-22.84-139.55C21.92,50.94,26.47,96.34,79,88.62,150.42,78.14,116.69,178.39,150.78,178.29Z"/><path class="cls-4" d="M64.55,58.41c0-15.73,115.36-29.61,115.28,10.29-.11,55.63-108.22,60.19-108.22,33.53S179.85,80,179.83,135.45c0,40.1-115.28,31.68-115.28,9.61,0-24.51,66.69,20.94,66.69-41.94C131.24,41.27,64.55,81.85,64.55,58.41Z"/><path class="cls-5" d="M148.74,19c70.91,26.64,3.41,118.85-37.63,95.57-39.46-22.39,24.54-99.18,68.27-55.07,47.91,48.33-8.38,162.64-88.91,144.15C-36.06,174.57,25.29-27.39,148.74,19Z"/></svg>