<svg id="Layer_1" data-name="Layer 1" xmlns="http://www.w3.org/2000/svg" viewBox="0 0 217.73 217.73"><defs><style>.cls-1,.cls-2,.cls-3,.cls-4{fill:none;stroke-linecap:round;stroke-linejoin:round;stroke-width:7px;}.cls-1{stroke:#cec19d;}.cls-2{stroke:#ed80b3;}.cls-3{stroke:#a0b8bc;}.cls-4{stroke:#50873e;}</style></defs><path class="cls-1" d="M177.49,185.08c-33.13,0-52-152.43-19.88-152.43s5.62,152.43-26.5,152.43S72.47,32.65,104.59,32.65s-1,152.43-33.15,152.43S19.45,32.65,51.55,32.65c26,0,10.34,99.35-6.62,125.92C25.84,188.46-34.91,62.68,105.35,62.1,231,61.58,210,185.08,177.49,185.08Z"/><path class="cls-2" d="M46.33,117.15c22.17-33.06,40.56-54.38,48.3-60.5,49.64-39.25,93.45-4.52,93.45,35,0,37.63-34,65.29-79.3,41.63-25.16-13.16-38-35.55-66.26-63.81C3.38,30.36,65.78-2.57,68.08,84.72,72.41,248.94,1,184.74,46.33,117.15Z"/><path class="cls-3" d="M53.14,29c-39.8.12-26.74,159.47,38.38,159.47C187.67,188.45,190.76,29,146.18,29c-46.45,0-24.89,183.54,25.73,157.18C198.28,172.43,193.16,121.28,134,130,53.55,141.79,91.53,28.86,53.14,29Z"/><path class="cls-4" d="M167.89,195.13C130.5,192.1,109,22.56,145.38,22.56s-.4,172.57-36.75,172.57S40.75,22.56,77.11,22.56s7.08,173.76-29.27,172.57C17.1,194.12,17.31,78,111.67,80.5,204.78,82.92,198.4,197.59,167.89,195.13Z"/></svg>