<svg xmlns="http://www.w3.org/2000/svg" viewBox="0 0 323.84 507.52"><defs><style>.cls-1,.cls-10,.cls-11,.cls-12,.cls-13,.cls-14,.cls-15,.cls-16,.cls-17,.cls-18,.cls-19,.cls-2,.cls-20,.cls-21,.cls-22,.cls-23,.cls-25,.cls-3,.cls-4,.cls-5,.cls-6,.cls-7,.cls-8,.cls-9{fill:none;}.cls-1{stroke:#ec8600;}.cls-1,.cls-10,.cls-11,.cls-12,.cls-13,.cls-14,.cls-15,.cls-16,.cls-17,.cls-18,.cls-19,.cls-2,.cls-20,.cls-21,.cls-22,.cls-23,.cls-3,.cls-4,.cls-5,.cls-6,.cls-7,.cls-8,.cls-9{stroke-miterlimit:10;}.cls-1,.cls-10,.cls-11,.cls-12,.cls-13,.cls-14,.cls-15,.cls-16,.cls-17,.cls-18,.cls-19,.cls-2,.cls-20,.cls-21,.cls-22,.cls-23,.cls-3,.cls-4,.cls-5,.cls-6,.cls-7,.cls-8{stroke-width:10px;}.cls-2{stroke:#cd62a2;}.cls-3{stroke:#eee300;}.cls-4{stroke:#ec7fb1;}.cls-5{stroke:#d6c7a2;}.cls-6{stroke:#da4994;}.cls-7{stroke:#b0c21d;}.cls-8{stroke:#ffe071;}.cls-14,.cls-9{stroke:#6fb62c;}.cls-9{stroke-width:9.53px;}.cls-10{stroke:#e9510e;}.cls-11{stroke:#c2bfbe;}.cls-12{stroke:#ffe000;}.cls-13{stroke:#959290;}.cls-15{stroke:#af6718;}.cls-16{stroke:#dd7c0e;}.cls-17{stroke:#80cbd5;}.cls-18{stroke:#fabb00;}.cls-19{stroke:#82c28a;}.cls-20{stroke:#3daa35;}.cls-21{stroke:#4c8fcc;}.cls-22{stroke:#abbfc3;}.cls-23{stroke:#4f8531;}.cls-24{fill:#ffe071;}.cls-25{stroke:#333;stroke-linecap:round;stroke-linejoin:round;stroke-width:2px;}.cls-26{fill:#a78f71;}.cls-27{fill:#b0c21d;}.cls-28{fill:#ec8600;}.cls-29{fill:#cd62a2;}.cls-30{fill:#e9510e;}.cls-31{fill:#c2bfbe;}.cls-32{fill:#d6c7a2;}.cls-33{fill:#ec7fb1;}.cls-34{fill:#e42e39;}.cls-35{fill:#6fb62c;}.cls-36{fill:#37a37f;}.cls-37{fill:#dd7c0e;}.cls-38{fill:#af6718;}.cls-39{fill:#80cbd5;}.cls-40{fill:#4f8531;}.cls-41{fill:#abbfc3;}.cls-42{fill:#fabb00;}.cls-43{fill:#be76af;}.cls-44{fill:#da4994;}.cls-45{fill:#959290;}.cls-46{fill:#eee300;}.cls-47{fill:#ffe000;}.cls-48{fill:#4c8fcc;}.cls-49{fill:#3daa35;}.cls-50{fill:#82c28a;}</style></defs><g id="Layer_2" data-name="Layer 2"><line class="cls-1" x1="70.66" y1="118.98" x2="135.83" y2="118.98"/><line class="cls-2" x1="135.17" y1="118.98" x2="200.34" y2="118.98"/><line class="cls-2" x1="72.69" y1="182.26" x2="137.86" y2="182.26"/><line class="cls-3" x1="72.69" y1="310.99" x2="129.51" y2="310.99"/><line class="cls-4" x1="115.61" y1="376.82" x2="162.09" y2="376.22"/><line class="cls-5" x1="258.08" y1="376.11" x2="211.61" y2="376.7"/><line class="cls-6" x1="140.93" y1="182.46" x2="206.09" y2="182.46"/><line class="cls-7" x1="207.23" y1="182.46" x2="272.4" y2="182.46"/><line class="cls-8" x1="193.01" y1="54.35" x2="193.78" y2="116.96"/><path class="cls-9" d="M63.54,377.23c26.36,43.32,171.74,43.75,198.13,0"/><line class="cls-10" x1="202.41" y1="117.63" x2="256.14" y2="117.63"/><line class="cls-10" x1="194.21" y1="118.23" x2="194.21" y2="183.53"/><line class="cls-11" x1="228.01" y1="312.56" x2="211.93" y2="376.22"/><line class="cls-12" x1="194.21" y1="247.26" x2="228.01" y2="310.93"/><line class="cls-11" x1="228.01" y1="312.56" x2="162.09" y2="376.22"/><line class="cls-13" x1="228.01" y1="312.56" x2="257.31" y2="246.61"/><line class="cls-14" x1="113.88" y1="377.23" x2="66.25" y2="377.23"/><line class="cls-15" x1="162.09" y1="376.22" x2="161.08" y2="443.54"/><line class="cls-16" x1="162.09" y1="376.22" x2="114.14" y2="428.38"/><line class="cls-17" x1="66.33" y1="440.78" x2="256.14" y2="440.78"/><line class="cls-18" x1="192.14" y1="183.53" x2="192.14" y2="248.22"/><line class="cls-18" x1="257.31" y1="246.61" x2="191.94" y2="181.24"/><line class="cls-19" x1="66.18" y1="245.77" x2="126.92" y2="245.77"/><line class="cls-20" x1="228.01" y1="312.56" x2="129.51" y2="245.95"/><line class="cls-21" x1="129.51" y1="310.99" x2="229.27" y2="310.99"/><line class="cls-22" x1="209.4" y1="377.23" x2="209.4" y2="441.63"/><line class="cls-23" x1="256.14" y1="440.78" x2="209.4" y2="377.23"/></g><g id="Layer_1" data-name="Layer 1"><circle class="cls-24" cx="193.45" cy="54.35" r="19.49"/><path class="cls-25" d="M203.12,62.29c3.87-9.16-14.22-7.17-14.27-2,0,3.86,11.46,4.74,10.08-7.11-1-8.37-13.25-7.34-13.25-1.91,0,6,17.94,0,13.71-7.06C195.68,38,178.15,43,180.82,56.78,183.65,71.36,200.58,68.31,203.12,62.29Z"/><circle class="cls-26" cx="257.04" cy="117.35" r="19.49"/><path class="cls-25" d="M264,127.86c7.3-3.84,7.58-20.94-3.54-22.61s-13.64,18.47-7.18,18.47-.81-20.3-5.28-14.94C240.48,117.81,247.47,136.57,264,127.86Z"/><circle class="cls-27" cx="257.04" cy="183.32" r="19.49"/><path class="cls-25" d="M264.63,176.59c0-7.06-16.31-11.17-16.31,7.73,0,14.35,16.75,14.11,16.91,5.86.17-8.51-20.24-11.4-20.24-7C245,188.37,264.63,183.62,264.63,176.59Z"/><circle class="cls-28" cx="66.25" cy="118.7" r="19.49"/><path class="cls-25" d="M76.35,127c-7.48,6-3.72-21.45-10.1-21.45-6.93,0-2.54,27.31-9.87,21.51C46.73,119.37,85.24,119.77,76.35,127Z"/><circle class="cls-29" cx="130.98" cy="118.7" r="19.49"/><path class="cls-25" d="M137.15,127.67c-4.82-1.51-8.61-15.86-3.54-16.07,5.61-.23,4.41,16.09-5.4,16.48-9.65.39-10.77-12.05-6-17.91,3.28-4,10.34-4.57,15.21-1.92C145.09,112.43,143.63,129.69,137.15,127.67Z"/><circle class="cls-30" cx="193.09" cy="118.98" r="19.49"/><path class="cls-25" d="M199.48,125.28c-5.75.93-17.52-2.86-17.47.72.06,4.36,18.46,3.86,18.46-3.39,0-5.45-18.54-7.44-18.54-4,0,4.37,18.54,2.85,18.54-4.46,0-6.41-18.52-6-18.5-2.53,0,5,12-1.16,17.56.27,5.14,1.33,6.18,4.89,6.18,6.85C205.71,121,205,124.39,199.48,125.28Z"/><circle class="cls-31" cx="228.84" cy="310.84" r="19.49"/><path class="cls-25" d="M238.32,317.77c0,7.72-20.64,9.18-20.62-6.45,0-16.33,20.62-15.19,20.62-7.2,0,7.21-12.18-.05-12.18,7.11C226.14,318.87,238.32,311.33,238.32,317.77Z"/><circle class="cls-32" cx="257.02" cy="375.81" r="19.49"/><path class="cls-25" d="M265.38,385.3c-4.3,0-6.74-19.75-2.58-19.75s.73,19.75-3.43,19.75-7.6-19.75-3.44-19.75-.13,19.75-4.29,19.75-6.74-19.75-2.58-19.75c3.37,0,1.34,12.87-.86,16.31-2.47,3.87-10.34-12.42,7.83-12.5C272.31,369.29,269.59,385.3,265.38,385.3Z"/><circle class="cls-33" cx="114" cy="375.81" r="19.49"/><path class="cls-25" d="M107.38,377.48a43.15,43.15,0,0,1,6.25-7.84c6.44-5.08,12.11-.58,12.11,4.54,0,4.88-4.41,8.46-10.27,5.39-3.26-1.7-4.92-4.6-8.59-8.26-5.07-5.07,3-9.34,3.31,2C110.76,394.56,101.5,386.24,107.38,377.48Z"/><circle class="cls-34" cx="161.67" cy="375.81" r="19.49"/><path class="cls-25" d="M151.3,367.66c0-2.87,21-5.4,21,1.87,0,10.15-19.74,11-19.74,6.12s19.74-4.06,19.74,6.06c0,7.31-21,5.78-21,1.75,0-4.47,12.81.85,12.81-7.71C164.11,366.93,151.3,371.93,151.3,367.66Z"/><circle class="cls-35" cx="66.33" cy="375.81" r="19.49"/><path class="cls-25" d="M76.19,376.93c-3,.37-1.48,4-4.64,4-5.07,0-12.92-18.09-5.17-18.09S66.43,381,61.21,381c-2.86,0-2.48-3.6-4.58-3.88-4.2-.57-3.83,9.54,9.67,9.52C80.13,386.6,79.87,376.49,76.19,376.93Z"/><circle class="cls-36" cx="209.35" cy="375.81" r="19.49"/><path class="cls-25" d="M216.43,385.77c5.15,0,3.46-20.66-5-20.66-12.45,0-12.85,20.66-7.08,20.66,6,0,3.23-23.78-3.33-20.36-3.42,1.78-2.76,8.4,4.91,7.28C216.37,371.15,211.45,385.79,216.43,385.77Z"/><circle class="cls-37" cx="114" cy="440.78" r="19.49"/><path class="cls-25" d="M117.41,434.59c0-1.22-.26-4.27,3.22-4.3,2.68,0,3.21,2.18,3.2,4.72,0,1.29-2,6.06-9.65,6-8.1,0-9.67,3.61-9.67,7.1,0,1.16.9,3.65,3.22,3.65,3.49,0,3.18-3.59,3.18-3.59V434.26c0-2.49,0-4-3.25-4-2.49,0-3.15,2.88-3.13,4.66,0,3.63,6.38,6.15,9.65,6.12s9.66,2.18,9.66,6.72c0,1.79-.78,4.12-3,4.12-2,0-3.43-2.2-3.43-4.91C117.42,443.77,117.39,442.12,117.41,434.59Z"/><circle class="cls-38" cx="161.67" cy="440.78" r="19.49"/><path class="cls-25" d="M167.38,446.85c0-5.37-5.28-16.18.43-16.6,5.49-.4-1.3,18.59-7.35,15.11-4.18-2.4,1.5-15-2.78-15.11-5.72-.11-11.91,13.35-3.45,20.26C159.32,454.67,167.38,453.81,167.38,446.85Z"/><circle class="cls-39" cx="66.33" cy="440.78" r="19.49"/><path class="cls-25" d="M75.88,449.14c-5,6.77-21.5-21.58-9.61-21.58,11.65,0-4.67,27.8-9.11,22.31C50.11,441.15,81.38,441.66,75.88,449.14Z"/><circle class="cls-40" cx="257.02" cy="440.78" r="19.49"/><path class="cls-25" d="M264.53,450.74c-4.85-.4-7.63-22.36-2.92-22.36s-.05,22.36-4.76,22.36-8.8-22.36-4.09-22.36.92,22.51-3.79,22.36c-4-.13-3.95-15.17,8.27-14.86C269.31,436.2,268.48,451.06,264.53,450.74Z"/><circle class="cls-41" cx="209.35" cy="440.78" r="19.49"/><path class="cls-25" d="M202.18,430.72c-5.15,0-3.46,20.66,5,20.66,12.45,0,12.85-20.66,7.08-20.66-6,0-3.23,23.78,3.33,20.36,3.42-1.78,2.75-8.4-4.91-7.28C202.24,445.33,207.16,430.7,202.18,430.72Z"/><circle class="cls-42" cx="193.09" cy="183.05" r="19.49"/><path class="cls-25" d="M198.07,183.15c-9.7-9.69-17.48-5-17.48.35,0,6,8.52,8.61,17.48-.35,3.56-3.55,7.51-2.38,7.51.11S202,187.11,198.07,183.15Z"/><circle class="cls-43" cx="66.25" cy="183.05" r="19.49"/><path class="cls-25" d="M75.13,183.05c4.6.09,1.53,8.49-3,8.49-6,0-14.91-21-6-21s0,20.87-6,21c-4.45.07-7.34-8.66-2.72-8.52,7,.21-5,12.51,8.75,12.51C80.18,195.53,68.24,182.91,75.13,183.05Z"/><circle class="cls-44" cx="130.98" cy="183.05" r="19.49"/><path class="cls-25" d="M139.77,188.48c-2.87,2.64-7.17,3.26-7.19,5.52s3.65,3,4.18,1c.43-1.62.17-2.55-1.12-4.73-3.43-5.77-8.42-14.24-3.11-15.13,4.68-.78,3.14,16.52-5.17,16.52-9.49,0-10.15-12.08-5.36-17.2,4.59-4.9,11.78-6.15,16.88-1.34C143.46,177.46,143.86,184.74,139.77,188.48Z"/><circle class="cls-45" cx="257.04" cy="245.87" r="19.49"/><path class="cls-25" d="M261.77,235.22c8.45,3.17.4,14.16-4.49,11.39-4.7-2.67,2.93-11.83,8.14-6.57,5.71,5.76-1,19.39-10.6,17.19C239.74,253.76,247.05,229.69,261.77,235.22Z"/><circle class="cls-46" cx="66.3" cy="310.93" r="19.49"/><path class="cls-25" d="M75.48,318.14c-3.91.38-7.87.09-7.87-6.16,0-5.75,4.33-13.79-1.31-13.79-6.25,0-1.4,7.2-1.36,12.95,0,6.36-4,7-7.29,7.12-3.07.07-4.46-3.71-.65-3.75,3.48,0,2,8.87,9.77,8.87,6.39,0,6.28-9.41,8.93-9.32C78.94,314.18,78.42,317.85,75.48,318.14Z"/><circle class="cls-47" cx="193.09" cy="245.87" r="19.49"/><path class="cls-25" d="M189.27,253.76c4.42-2.16,14.74-8,14.74-2.59s-18.58,7.91-18.58-5.27,18.58-11,18.58-5.58-9.2-.8-13.81-2.9c-5.84-2.67-9.59,2.83-9.59,8.06C180.61,251.44,183.77,256.44,189.27,253.76Z"/><circle class="cls-48" cx="130.98" cy="310.93" r="19.49"/><path class="cls-25" d="M138.59,317.93c0,7.09-14.67,10.19-14.69-7.52,0-16.1,14.68-13.56,14.69-6.71,0,11.73-18.09-.2-18.09,7.07C120.5,318.56,138.59,305.64,138.59,317.93Z"/><circle class="cls-49" cx="130.98" cy="245.93" r="19.49"/><path class="cls-25" d="M136.46,236.26c-5.79.37-11.86,14.23-5.31,14.23,4.9,0,1.47-14.17-5.81-14.23-7-.06-1.29,21.39,5.63,21.39C137.47,257.65,144,235.79,136.46,236.26Z"/><circle class="cls-50" cx="66.25" cy="245.93" r="19.49"/><g id="Layer_2-2" data-name="Layer 2"><path class="cls-25" d="M76.19,255.92c-4.85,6.87-15-26.91-19.9-19.9-5.15,7.37,25.73,7.4,19.9,0-4.62-5.86-15.24,25.67-19.9,19.9C49.87,248,81.92,247.82,76.19,255.92Z"/></g></g></svg>