<svg id="Layer_1" data-name="Layer 1" xmlns="http://www.w3.org/2000/svg" viewBox="0 0 217.73 217.73"><defs><style>.cls-1,.cls-2,.cls-3,.cls-4{fill:none;stroke-linecap:round;stroke-linejoin:round;stroke-width:7px;}.cls-1{stroke:#723393;}.cls-2{stroke:#797eba;}.cls-3{stroke:#dc7f27;}.cls-4{stroke:#aa6828;}</style></defs><path class="cls-1" d="M71.34,188.63c.11-28.63.82-14,.91-76.88s-2.33-52-1.16-75.09c1-20.48,20.36,52.54,84.73-12.51,15.62-15.79-6.23,33.29-20,58.27C111.13,127.11,50.38,128,50.51,112.58c.13-16.12,50.74-14.79,84.58,37.41,17.92,27.64,43.67,54.15,26.45,44.71C85.06,152.79,71.25,211.38,71.34,188.63Z"/><path class="cls-2" d="M182.86,155.24c7.75,26.52-20.48,37.92-40.82,1.92C108.91,98.56,62.62,80.49,63,108.45c.36,27.38,45.81,4.69,78.24-53.88,13-23.48,42.67-8.46,40,6.42C176.4,87.28,19.37,83,34.59,46.88c9.31-22.08,46-19.75,45.29,61-.73,79.14-34.79,89.67-40.16,58.94C34.16,135,175.78,131,182.86,155.24Z"/><path class="cls-3" d="M132.5,62.05c0-8.8-1.86-30.8,23.3-31.06,19.38-.2,22.64,15.17,22.61,33.53,0,9.33-14.07,44.34-69.21,44.12-58.51-.23-69.89,26.13-69.89,51.3,0,8.38,6.53,26.36,23.32,26.36,25.15,0,23-25.94,23-25.94V59.71c0-18-.42-28.92-23.5-28.92-18,0-22.79,20.78-22.63,33.67.31,26.24,46.13,44.41,69.73,44.18,23.29-.22,69.21,15.63,69.21,48.44,0,12.94-5,29.86-21,29.86-14.24,0-24.75-15.87-24.75-35.41C132.61,128.4,132.39,116.5,132.5,62.05Z"/><path class="cls-4" d="M162.5,146.55c0-38.77-38.15-116.88,3.1-119.91,39.66-2.91-9.41,134.3-53.08,109.17C82.33,118.43,123.33,27.27,92.42,26.65,51.12,25.8,6.36,123,67.5,173,104.24,203,162.5,196.86,162.5,146.55Z"/></svg>