<svg id="Layer_1" data-name="Layer 1" xmlns="http://www.w3.org/2000/svg" viewBox="0 0 217.73 217.73"><defs><style>.cls-1,.cls-2,.cls-3,.cls-4{fill:none;stroke-linecap:round;stroke-linejoin:round;stroke-width:7px;}.cls-1{stroke:#44aed6;}.cls-2{stroke:#da72ad;}.cls-3{stroke:#fab915;}.cls-4{stroke:#f15d22;}</style></defs><path class="cls-1" d="M152.38,191C116.51,179.8,88.27,72.85,126,71.31c41.76-1.7,32.82,119.86-40.27,122.78C13.91,197,5.58,104.32,41,60.68c24.41-30.11,77-34.06,113.31-14.31C211.51,77.53,200.69,206.09,152.38,191Z"/><path class="cls-2" d="M157.12,142c-16.9,15.47-42.14,19.15-42.22,32.41-.08,13.58,21.43,17.4,24.5,6,2.57-9.5,1-15-6.57-27.77-20.1-33.83-49.38-83.58-18.23-88.77,27.48-4.58,18.43,96.93-30.33,96.93-55.73,0-59.57-70.92-31.44-101,26.93-28.74,69.11-36.1,99.05-7.85C178.72,77.34,181.11,120,157.12,142Z"/><path class="cls-3" d="M158.07,108.79C112.28,63,75.54,85.17,75.54,110.4c0,28.49,40.24,40.68,82.53-1.61,16.81-16.82,35.48-11.26,35.48.48S176.75,127.47,158.07,108.79Z"/><g id="Layer_3" data-name="Layer 3"><path class="cls-4" d="M140.25,151.39c-33.95,5.48-103.42-16.91-103.13,4.23.36,25.79,109,22.83,109-20,0-32.14-109.5-43.9-109.5-23.34,0,25.78,109.5,16.81,109.5-26.36C146.14,48,36.79,50.43,36.86,71c.12,29.72,71-6.85,103.7,1.59,30.36,7.84,36.49,28.87,36.49,40.41C177.05,125.8,173,146.11,140.25,151.39Z"/></g></svg>